<svg xmlns="http://www.w3.org/2000/svg" viewBox="0 0 210 230" fill="none">
<defs>
<linearGradient id="gold" x1="0" y1="0" x2="1" y2="1"><stop stop-color="#FFE7A3"/><stop offset=".45" stop-color="#D4AF37"/><stop offset="1" stop-color="#8C6420"/></linearGradient>
<linearGradient id="violet" x1="0" y1="0" x2="1" y2="1"><stop stop-color="#D59BFF"/><stop offset=".45" stop-color="#8A3DDB"/><stop offset="1" stop-color="#3A165B"/></linearGradient>
<filter id="glow" x="-80%" y="-80%" width="260%" height="260%"><feGaussianBlur stdDeviation="2.2" result="b"/><feMerge><feMergeNode in="b"/><feMergeNode in="SourceGraphic"/></feMerge></filter>

</defs>

<g filter="url(#glow)" transform="translate(210 0) scale(-1 1)">
<path d="M92 211c-18-6-31-22-38-46-6-19-3-36 6-53l7-13 0-50c0-8 10-9 13-2l2 38 6-59c1-9 13-9 14 0l1 56 7-61c1-9 13-8 14 1l-1 62 8-52c2-9 14-7 14 2l-5 68 9-32c3-8 14-5 13 4l-7 44c-5 36-18 73-63 93Z" fill="#4c2c0f" fill-opacity=".33" stroke="#e7a837" stroke-width="3"/>
<path d="M78 116c22 11 44 10 63-3M82 146c17-18 34-31 54-39M99 182c-5-24-3-47 6-71M121 181c8-22 10-44 5-67" stroke="#f1bf5e" stroke-width="2" stroke-linecap="round"/>
<path d="M93 126l8 7 9-11 9 13 10-7M91 159l10-6 8 11 13-5M104 93l9 10 10-8" stroke="#ffe09a" stroke-width="1.5"/>
</g>

</svg>